<?xml version="1.0" encoding="iso-8859-1"?>
<!-- Uploaded to: SVG Repo, www.svgrepo.com, Generator: SVG Repo Mixer Tools -->
<!DOCTYPE svg PUBLIC "-//W3C//DTD SVG 1.1//EN" "http://www.w3.org/Graphics/SVG/1.1/DTD/svg11.dtd">
<svg fill="#000000" height="800px" width="800px" version="1.1" id="Capa_1" xmlns="http://www.w3.org/2000/svg" xmlns:xlink="http://www.w3.org/1999/xlink" 
	 viewBox="0 0 360 360" xml:space="preserve">
<path d="M194.865,8.769h-29.729C74.079,8.769,0,82.848,0,173.903v53.081v22.354v43.826c0,32.018,26.05,58.067,58.07,58.067h31.188
	c11.063,0,20.033-8.97,20.033-20.035V188.951c0-11.065-8.97-20.035-20.033-20.035H58.07c-6.273,0-12.311,1.012-17.974,2.861
	c1.141-67.983,56.789-122.939,125.039-122.939h29.729c68.25,0,123.898,54.955,125.039,122.939
	c-5.663-1.849-11.701-2.861-17.974-2.861h-31.188c-11.064,0-20.033,8.97-20.033,20.035v142.245c0,11.066,8.97,20.035,20.033,20.035
	h31.188c32.02,0,58.07-26.049,58.07-58.067v-43.826v-22.354v-53.081C360,82.848,285.921,8.769,194.865,8.769z"/>
</svg>